<svg xmlns="http://www.w3.org/2000/svg" width="26.301" height="35.567" viewBox="0 0 26.301 35.567">
  <path id="Path_102" data-name="Path 102" d="M632.09,937.678c-.548.075-.582-.366-.657-.82a3.47,3.47,0,0,0-.364-1.135c-.01.012-.024.016-.028.038l-.181.436c-.1.277-.088.19.009.439a1.6,1.6,0,0,1,.093,1.124.508.508,0,0,1-.926-.184,6.239,6.239,0,0,1,.051-1.494,2.308,2.308,0,0,0-.854,1.563c.223-.175.234-.3.427-.477.011.654-.089,1.413.406,1.69.732.41,1.073-.7,1.12-.795.26.224.286.645.831.563a.9.9,0,0,0,.635-.8,5.383,5.383,0,0,0-.381-2.456c-.177.258-.425.8-.278,1.118.2.439.423.742.1,1.192m16.114,3.042c-.116.463.15,1.333-.489,1.432-1.244.193-.42-2.218-.229-2.727.1-.278.514-1.168.42-1.366-.244.037-.068-.072-.412.483l-1.04,1.658a4.051,4.051,0,0,0-.52,2.868,1.352,1.352,0,0,0,2.328.327A2.1,2.1,0,0,0,648.2,940.721Zm.408,8.545a2.774,2.774,0,0,0-2.419-1.891l-.182,0c-1.7.055-1.139,2.529.295,2.2.5-.116.531-.287.625-.745a2.2,2.2,0,0,1,1.661,1.4l.347.768c0-.836,0-1.7.049-2.535.031-.584.071-1.951.863-1.677.257.134.192.422.242.595.058.2-.068-.008.062.134a2.436,2.436,0,0,0,.512-1.692.873.873,0,0,0-1.409-.491C648.388,945.937,648.789,948.137,648.612,949.266Zm-23.385-2.231a2.679,2.679,0,0,1,.9-.5,6.054,6.054,0,0,1,1.248-.251,4.247,4.247,0,0,1-1.329,2.07c-.184.154-.525.266-.581.572a6.739,6.739,0,0,0,2.633-1.953,7.088,7.088,0,0,0,1.285-3.343,23.069,23.069,0,0,0-3.045.728C625.645,944.648,625.284,946.115,625.227,947.035Zm2.409,7.261h3.813v-5.15c-.017.008-.04,0-.047.026s-.035.02-.045.026L629,951.185A3.708,3.708,0,0,0,627.636,954.3Zm10.038-27.017c-.214,1.019.344.573.877,1.612a4.388,4.388,0,0,1,.29,2.208v12.956c0,1.781-.412,1.547-.611,2.047.416.239.837,1.105,1.286,1.394,1.068-1.34,1.079-1.374,1.078-3.263V924.808c-.976-.134-.982,1.246-1.9,2.1A1.6,1.6,0,0,1,637.674,927.279Zm4.625,28.769,9.226,0c.011-.321.016-.431-.527-.811-.687-.48-1.705-.563-2.086-2.125-.553,0-.432-.074-.945.452-.926.949-2.455.739-3.854.73V938.767a7.818,7.818,0,0,1,.177-2.466c.481-1.4.981-.619.87-1.753-.479-.232-.454-.03-.873-.445-.782-.773-1.129-2.1-2.005-2.12.069,5.925,0,12.238,0,18.2Zm-8.253-21.5c-.021.659.316.777.568,1.284a3.151,3.151,0,0,1,.432,1.509v7.726c0,1.535,2.117,3.412,3.062,4.765a2.739,2.739,0,0,1,.733,2.009v4.815c0,1.405-.8,2.155-1.271,1.787-.8-.631-.723-1.545-.723-2.44,0-.6-.053-4.481.043-4.891a6.3,6.3,0,0,1,.554-1.112l-1.085-1.249c-.152-.173.01-.057-.186-.192a4.371,4.371,0,0,0-.758.938,2.262,2.262,0,0,0-.369,1.333q0,1.733,0,3.466l-1.844,0V939.22c-.3,0-.375.009-.54.158a3.273,3.273,0,0,0-.806,1.174,2.46,2.46,0,0,1-1.5,1.187c-.111.755.184.415.7,1.313a3.353,3.353,0,0,1,.388,2.015,4.39,4.39,0,0,1-1.266,2.881,10.487,10.487,0,0,1-1.044,1c-.222.164-.335.307-.553.47-.254.19-.378.32-.589.492a5.177,5.177,0,0,0-1.8,2.344,10.781,10.781,0,0,0-.334,3.783c1.425.154,8.371-.163,9.188.05a4.944,4.944,0,0,0,.637,3.064c1.441,1.94,3.661,1.406,4.57-.525.6-1.273.272-4.875.338-6.844,0-1.593.013-1.8-.788-2.9-.552-.753-1.171-1.315-1.721-2a4.265,4.265,0,0,1-1.239-2.528l0-12.363c-.7-.022-1.038.63-1.363,1.282A2.825,2.825,0,0,1,634.046,934.547Z" transform="translate(-625.227 -924.799)" fill="white" fill-rule="evenodd"/>
</svg>
