<svg xmlns="http://www.w3.org/2000/svg" width="138.576" height="19.562" viewBox="0 0 138.576 19.562">
  <path id="Union_7" data-name="Union 7" d="M17.824-213.839a2.76,2.76,0,0,1-1.147-1.051,2.663,2.663,0,0,1-.379-1.365,2.333,2.333,0,0,1,.672-1.689,2.439,2.439,0,0,1,1.84-.694.5.5,0,0,1,.26.055.162.162,0,0,1,.087.14c0,.058-.091.184-.271.379a3.017,3.017,0,0,0-.477.7,2.326,2.326,0,0,0-.206,1.039,1.914,1.914,0,0,0,.466,1.311,1.574,1.574,0,0,0,1.246.53,1.938,1.938,0,0,0,1.8-1.007,5.357,5.357,0,0,0,.585-2.7v-2.9a3.42,3.42,0,0,1-1.375,1.365,4.06,4.06,0,0,1-2,.5,2.75,2.75,0,0,1-2.156-.855,3.462,3.462,0,0,1-.768-2.394V-226.8a.6.6,0,0,0-.087-.368.369.369,0,0,0-.3-.108h-.889l-.151-.477a3.846,3.846,0,0,1,1.223-.845,3.3,3.3,0,0,1,1.333-.325.674.674,0,0,1,.466.163.536.536,0,0,1,.184.422v5.415a2.833,2.833,0,0,0,.477,1.777,1.635,1.635,0,0,0,1.365.606,2.432,2.432,0,0,0,2.058-.975,4.491,4.491,0,0,0,.736-2.751,16.054,16.054,0,0,0-.13-2.4,3.07,3.07,0,0,0-.65-1.43l-.216-.3.216-.282,2.4-.238v10.441a5.435,5.435,0,0,1-1.17,3.726,4.036,4.036,0,0,1-3.185,1.322A3.967,3.967,0,0,1,17.824-213.839Zm-41.419,0a2.766,2.766,0,0,1-1.147-1.051,2.663,2.663,0,0,1-.379-1.365,2.333,2.333,0,0,1,.672-1.689,2.441,2.441,0,0,1,1.841-.694.5.5,0,0,1,.259.055.162.162,0,0,1,.087.14c0,.058-.09.184-.271.379a3.016,3.016,0,0,0-.477.7,2.326,2.326,0,0,0-.206,1.039,1.919,1.919,0,0,0,.466,1.311,1.575,1.575,0,0,0,1.246.53,1.937,1.937,0,0,0,1.8-1.007,5.357,5.357,0,0,0,.585-2.7v-2.9a3.42,3.42,0,0,1-1.375,1.365,4.06,4.06,0,0,1-2,.5,2.748,2.748,0,0,1-2.155-.855,3.458,3.458,0,0,1-.769-2.394V-226.8a.6.6,0,0,0-.087-.368.368.368,0,0,0-.3-.108H-26.7l-.152-.477a3.839,3.839,0,0,1,1.224-.845,3.289,3.289,0,0,1,1.332-.325.674.674,0,0,1,.466.163.536.536,0,0,1,.184.422v5.415a2.833,2.833,0,0,0,.477,1.777,1.635,1.635,0,0,0,1.365.606,2.432,2.432,0,0,0,2.058-.975,4.485,4.485,0,0,0,.736-2.751,16.053,16.053,0,0,0-.13-2.4,3.07,3.07,0,0,0-.65-1.43l-.216-.3.216-.282,2.4-.238v10.441a5.435,5.435,0,0,1-1.17,3.726,4.036,4.036,0,0,1-3.185,1.322A3.967,3.967,0,0,1-23.6-213.839Zm36.729-1.96a11.717,11.717,0,0,0-.931-2.883,2.106,2.106,0,0,1-.434.044,2.278,2.278,0,0,1-2.079-1.386l-1.6-2.708q-1.755,1.973-1.755,2.557a.578.578,0,0,0,.1.335,1.875,1.875,0,0,0,.292.314l.368.3-.216.3H3.82l-.239-.412q2.275-2.231,4.094-4.137l-2.166-3.683a1.144,1.144,0,0,0-.368-.422.849.849,0,0,0-.454-.119,2.137,2.137,0,0,0-.737.238l-.433-.563a2.448,2.448,0,0,1,1.819-.888,2.252,2.252,0,0,1,2.08,1.343L9-224.877q1.733-1.993,1.733-2.577a.535.535,0,0,0-.087-.3,2.363,2.363,0,0,0-.282-.325l-.434-.3.26-.281h3.077l.195.39-.521.52q-2.015,1.971-3.531,3.618l2.187,3.7a1.078,1.078,0,0,0,.358.433.9.9,0,0,0,.466.109,1.234,1.234,0,0,0,.593-.167l.005-.009c.056-.1.21-.19.832.392v4.05l-.629.239Zm44.083-3.326a2.684,2.684,0,0,1-.368-1.592,5.039,5.039,0,0,1-1.614,1.614,3.652,3.652,0,0,1-1.808.465,3.078,3.078,0,0,1-1.766-.552,3.811,3.811,0,0,1-1.3-1.625,6.291,6.291,0,0,1-.487-2.611,5.638,5.638,0,0,1,1.375-4.007,4.839,4.839,0,0,1,3.715-1.473,12.89,12.89,0,0,1,2.123.239q1,.173,1.8.238l.259.238-.282.369a3.175,3.175,0,0,0-.206.4,1.087,1.087,0,0,0-.054.379v6.391q0,.607.628.606a1.711,1.711,0,0,0,.975-.347l.368.5a4.473,4.473,0,0,1-1.1.92,2.17,2.17,0,0,1-1.062.335A1.4,1.4,0,0,1,57.217-219.126Zm-4.472-7.646a4.873,4.873,0,0,0-.792,2.979,4.69,4.69,0,0,0,.639,2.74,1.908,1.908,0,0,0,1.592.877,3.025,3.025,0,0,0,2.665-1.777v-5.307a3.363,3.363,0,0,0-1.907-.563A2.593,2.593,0,0,0,52.745-226.772Zm-23.667,7.463a4.713,4.713,0,0,1-1.7-1.841,5.533,5.533,0,0,1-.617-2.621,5.96,5.96,0,0,1,.585-2.719,4.2,4.2,0,0,1,1.668-1.787,4.915,4.915,0,0,1,2.513-.629,4.007,4.007,0,0,1,2.48.726,2.242,2.242,0,0,1,.964,1.874,1.842,1.842,0,0,1-.541,1.375,1.9,1.9,0,0,1-1.387.53.663.663,0,0,1-.281-.043.155.155,0,0,1-.087-.152.788.788,0,0,1,.14-.282,2.424,2.424,0,0,0,.25-.53,2.544,2.544,0,0,0,.108-.812,1.54,1.54,0,0,0-.509-1.224,1.988,1.988,0,0,0-1.354-.444,2.059,2.059,0,0,0-1.809,1.094,5.4,5.4,0,0,0-.682,2.891,4.633,4.633,0,0,0,.812,2.882,2.624,2.624,0,0,0,2.2,1.062,3.757,3.757,0,0,0,1.343-.239,4.509,4.509,0,0,0,1.257-.757A.247.247,0,0,1,34.6-221a.456.456,0,0,1,.336.184.573.573,0,0,1,.163.379q0,.152-.044.152a4.727,4.727,0,0,1-1.613,1.223,4.549,4.549,0,0,1-1.917.422A4.553,4.553,0,0,1,29.078-219.309Zm-44.343.183a1.763,1.763,0,0,1-.477-1.289,1.382,1.382,0,0,1,.26-.888.841.841,0,0,1,.693-.325c.259,0,.411.2.454.606a1.179,1.179,0,0,0,.207.53.558.558,0,0,0,.487.228q1.625,0,2.1-6.2l.021-.368a1.008,1.008,0,0,0-.259-.8,2.233,2.233,0,0,0-1.04-.325l-.411-.13.216-.585h7.82l.26.281-.26.326a3.8,3.8,0,0,0-.639,1.278,6.822,6.822,0,0,0-.184,1.755v3.855a1.767,1.767,0,0,0,.238,1.062,1.747,1.747,0,0,0,.888.5l.368.087-.195.607H-9.135l-.216-.607.411-.13a1.7,1.7,0,0,0,.931-.52,2.081,2.081,0,0,0,.239-1.17v-4.918a1.807,1.807,0,0,0-.228-1.1,1.252,1.252,0,0,0-.942-.26h-.347a1.872,1.872,0,0,0-.833.141.619.619,0,0,0-.292.574,26.484,26.484,0,0,1-.834,5.2,5.655,5.655,0,0,1-1.235,2.448,2.2,2.2,0,0,1-1.527.628A1.675,1.675,0,0,1-15.265-219.126Zm-15.813,0a2.676,2.676,0,0,1-.368-1.592,5.02,5.02,0,0,1-1.614,1.614,3.652,3.652,0,0,1-1.808.465,3.073,3.073,0,0,1-1.765-.552,3.812,3.812,0,0,1-1.3-1.625,6.291,6.291,0,0,1-.487-2.611,5.643,5.643,0,0,1,1.375-4.007,4.841,4.841,0,0,1,3.716-1.473,12.891,12.891,0,0,1,2.122.239q1,.173,1.8.238l.259.238-.281.369a3.08,3.08,0,0,0-.207.4,1.088,1.088,0,0,0-.054.379v6.391a.546.546,0,0,0,.628.606,1.708,1.708,0,0,0,.975-.347l.368.5a4.456,4.456,0,0,1-1.1.92,2.17,2.17,0,0,1-1.062.335A1.4,1.4,0,0,1-31.079-219.126Zm-4.473-7.646a4.873,4.873,0,0,0-.791,2.979,4.691,4.691,0,0,0,.639,2.74,1.909,1.909,0,0,0,1.593.877,3.024,3.024,0,0,0,2.664-1.777v-5.307a3.363,3.363,0,0,0-1.907-.563A2.594,2.594,0,0,0-35.552-226.772Zm-25.1,7.463a4.711,4.711,0,0,1-1.7-1.841,5.533,5.533,0,0,1-.617-2.621,5.96,5.96,0,0,1,.585-2.719,4.2,4.2,0,0,1,1.668-1.787,4.912,4.912,0,0,1,2.512-.629,4.01,4.01,0,0,1,2.481.726,2.245,2.245,0,0,1,.964,1.874,1.839,1.839,0,0,1-.542,1.375,1.9,1.9,0,0,1-1.386.53.668.668,0,0,1-.282-.043.157.157,0,0,1-.087-.152.78.78,0,0,1,.141-.282,2.424,2.424,0,0,0,.249-.53,2.544,2.544,0,0,0,.108-.812,1.54,1.54,0,0,0-.509-1.224,1.984,1.984,0,0,0-1.354-.444,2.058,2.058,0,0,0-1.808,1.094,5.4,5.4,0,0,0-.682,2.891,4.627,4.627,0,0,0,.812,2.882,2.623,2.623,0,0,0,2.2,1.062,3.751,3.751,0,0,0,1.342-.239,4.482,4.482,0,0,0,1.257-.757.25.25,0,0,1,.174-.044.455.455,0,0,1,.335.184.568.568,0,0,1,.163.379c0,.1-.015.152-.043.152a4.721,4.721,0,0,1-1.614,1.223,4.546,4.546,0,0,1-1.917.422A4.553,4.553,0,0,1-60.649-219.309Zm104.154.39-.239-.607.434-.13a1.669,1.669,0,0,0,.92-.509,2.043,2.043,0,0,0,.228-1.138v-1.95H40.126v2.079a1.832,1.832,0,0,0,.227,1.072,1.729,1.729,0,0,0,.877.487l.39.109-.195.585h-4.4l-.216-.607.411-.13a1.654,1.654,0,0,0,.9-.509,2.054,2.054,0,0,0,.227-1.138v-4.982a2.112,2.112,0,0,0-.227-1.148,1.617,1.617,0,0,0-.9-.52l-.411-.13.216-.585h3.9l.239.259-.239.326a3.762,3.762,0,0,0-.617,1.267,7.054,7.054,0,0,0-.184,1.787v.628h4.723v-1.884a2.1,2.1,0,0,0-.228-1.148,1.632,1.632,0,0,0-.92-.52l-.434-.13.239-.585h3.9l.259.259-.259.326a3.592,3.592,0,0,0-.606,1.256,7.451,7.451,0,0,0-.174,1.8v3.855a1.9,1.9,0,0,0,.216,1.072,1.65,1.65,0,0,0,.867.487l.346.109-.173.585Zm-87.538,0-.216-.607.39-.13a1.527,1.527,0,0,0,.823-.477,1.344,1.344,0,0,0,.26-.867,3.479,3.479,0,0,0-.065-.628l-.78-4.9-2.946,6.3h-.606l-2.968-6.3-.736,4.722a3.478,3.478,0,0,0-.044.433,3.279,3.279,0,0,0,.65,1.841l.238.326-.259.282h-3.38l-.239-.607.455-.13a1.546,1.546,0,0,0,.9-.542,3.014,3.014,0,0,0,.358-1.1l.78-5.329a1.141,1.141,0,0,0,.021-.259.844.844,0,0,0-.271-.672,2.089,2.089,0,0,0-.833-.39l-.368-.13.174-.585h3.293l2.816,5.979,2.859-5.979h2.556l.3.259-.259.326a3.031,3.031,0,0,0-.694,1.8,2.149,2.149,0,0,0,.065.52l.672,3.337c.029.115.058.274.087.476a16.375,16.375,0,0,0,.455,1.7,2.822,2.822,0,0,0,.693,1.051l-.217.282Zm-24.7,0-.216-.672.477-.108a1.384,1.384,0,0,0,.661-.315.774.774,0,0,0,.206-.574,1.636,1.636,0,0,0-.1-.509q-.1-.292-.14-.422l-.932-2.751H-73.3l-.477,1.429a7.325,7.325,0,0,0-.434,2.058,2.318,2.318,0,0,0,.282,1.192l.152.346-.368.326h-3.6l-.26-.672.455-.108a2.825,2.825,0,0,0,1.148-.574,3.19,3.19,0,0,0,.649-1.246l3.077-8.882a3.924,3.924,0,0,0,.216-.953.775.775,0,0,0-.206-.574,1.25,1.25,0,0,0-.661-.292l-.454-.108.238-.672h3.77l3.964,11.352a4.954,4.954,0,0,0,.682,1.386,6.19,6.19,0,0,0,1.095,1.018l-.26.326Zm-4.137-6.586h3.7l-1.884-5.5Z" transform="translate(78 233)" fill="white"/>
</svg>
